<svg width="999" height="623" viewBox="0 0 999 623" fill="none" xmlns="http://www.w3.org/2000/svg">
<g filter="url(#filter0_d_0_3)">
<path d="M608.122 62.7643C590.122 57.1777 578.607 49.9418 552.622 42.8662C526.622 33.8662 519.122 42.8662 515.262 44.8662C515.262 44.8662 508.122 49.8662 501.061 55.8611C489.061 59.3611 459.362 70.0643 437.762 83.2643C410.762 99.7643 399.262 112.264 394.262 115.264C390.262 117.664 373.928 142.264 366.262 154.264L323.762 216.764C322.928 218.598 321.362 223.464 321.762 228.264C322.162 233.064 328.595 244.598 331.762 249.764C333.262 252.598 341.362 259.764 361.762 265.764C382.162 271.764 409.595 252.931 420.762 242.764C436.595 225.598 469.662 189.764 475.262 183.764C482.262 176.264 494.762 173.264 515.262 169.764C531.662 166.964 544.762 172.264 549.262 175.264L791.762 342.264C848.262 302.098 956.922 230.564 968.122 221.764C979.322 212.964 981.956 191.098 972.622 175.264L917.622 62.7643C909.122 47.2643 898.122 23.2642 884.122 9.76429C879.456 5.26435 866.622 -4.13387 851.122 5.26428C841.104 9.13484 833.031 16.1418 807.122 30.3661C778.209 46.24 752.787 56.9936 735.622 62.7643C722.51 67.1725 665.622 82.8662 608.122 62.7643Z" fill="#FFD75E"/>
<path d="M484.762 437.264C481.428 435.098 474.162 432.064 471.762 437.264C469.362 442.464 471.762 447.431 473.262 449.264L505.762 475.264L581.262 529.764C586.028 533.778 592.229 543.191 588.527 554.764C595.54 539.964 588.272 519.534 583.762 511.17C554.896 489.408 509.062 455.298 484.762 437.264Z" fill="#2581B8"/>
<path d="M523.762 359.264C520.428 356.098 512.562 351.364 507.762 357.764C502.962 364.164 508.095 370.764 511.262 373.264L654.262 476.264L663.762 482.764C669.443 487.704 677.082 498.611 673.986 510.764C681.365 497.164 673.913 474.431 669.264 464.764L523.762 359.264Z" fill="#2581B8"/>
<path d="M496.624 563.237C498.573 560.612 501.616 556.515 501.616 556.515L512.944 541.262C530.831 517.178 520.437 505.721 505.627 494.722C490.817 483.723 476.038 475.861 457.853 500.347L433.408 533.262C422.079 548.515 431.45 563.572 444.295 573.111C457.14 582.651 473.295 594.649 496.624 563.237Z" fill="#FFD75E"/>
<path d="M362.919 538.442C384.194 554.242 396.805 554.034 419.76 523.126L444.205 490.211C454.937 475.76 452.479 463.228 433.168 448.886C413.857 434.544 398.248 435.526 388.811 449.071L363.807 481.9C344.289 508.181 341.645 522.642 362.919 538.442Z" fill="#FFD75E"/>
<path d="M292.674 486.272C313.547 501.774 326.431 503.638 350.124 471.737L374.762 438.637C388.774 419.771 374.814 404.737 363.624 397.237C354.624 390.237 332.632 371.847 315.639 394.727L291.124 427.737C267.643 459.354 271.8 470.77 292.674 486.272Z" fill="#FFD75E"/>
<path d="M220.714 428.861C238.48 442.677 250.613 449.82 276.624 416.737L301.029 383.876C311.761 369.426 309.936 357.365 289.866 342.459C268.592 326.659 258.094 328.323 246.934 343.701C243.994 347.751 242.594 349.545 237.624 356.237C237.79 356.404 234.124 361.21 223.624 374.737C202.657 401.748 206.901 418.117 220.714 428.861Z" fill="#FFD75E"/>
<path d="M670.622 360.366C626.122 329.366 593.429 305.764 575.262 291.264C570.929 287.431 560.762 281.464 554.762 288.264C548.762 295.064 558.262 302.764 563.762 305.764L741.262 429.764C746.52 433.95 753.133 442.944 751.944 454.264C753.467 439.764 753.122 437.376 747.122 415.866C732.394 404.824 697.622 379.199 670.622 360.366Z" fill="#2581B8"/>
<path d="M791.762 342.264C822.622 367.366 827.122 383.366 807.122 409.866C789.622 429.764 774.482 429.376 747.122 415.866C742.438 412.355 725.752 400.201 717.122 393.701C704.197 384.576 687.122 372.017 670.622 360.366C626.122 329.366 593.429 305.764 575.262 291.264C570.929 287.431 560.762 281.464 554.762 288.264C548.762 295.064 558.262 302.764 563.762 305.764L741.262 429.764C746.52 433.95 753.133 442.944 751.944 454.264C751.286 460.526 748.242 467.499 741.262 474.764C721.662 495.164 698.429 486.264 689.262 479.264L669.264 464.764L523.762 359.264C520.428 356.098 512.562 351.364 507.762 357.764C502.962 364.164 508.095 370.764 511.262 373.264L654.262 476.264L663.762 482.764C669.443 487.704 677.082 498.611 673.986 510.764C672.904 515.012 668.01 525.413 663.762 529.764C646.679 547.264 628.762 545.764 604.262 526.764C599.703 523.228 592.512 517.766 583.762 511.17C554.896 489.408 509.062 455.298 484.762 437.264C481.428 435.098 474.162 432.064 471.762 437.264C469.362 442.464 471.762 447.431 473.262 449.264L505.762 475.264L581.262 529.764C586.028 533.778 592.229 543.191 588.527 554.764C587.31 558.569 580.023 568.107 576.262 572.264C557.262 593.264 533.624 577.737 533.624 577.737C533.624 577.737 526.78 573.455 519.426 569.069C510.624 563.237 510.116 562.515 501.616 556.515L512.944 541.262C530.831 517.178 520.437 505.721 505.627 494.722C490.817 483.723 476.038 475.861 457.853 500.347L433.408 533.262L426.182 527.896L419.76 523.126L444.205 490.211C454.937 475.76 452.479 463.228 433.168 448.886C413.857 434.544 398.248 435.526 388.811 449.071L363.807 481.9L356.18 476.235L350.124 471.737L374.762 438.637C388.774 419.771 374.814 404.737 363.624 397.237C354.624 390.237 332.632 371.847 315.639 394.727L291.124 427.737L276.624 416.737L301.029 383.876C311.761 369.426 309.936 357.365 289.866 342.459C268.592 326.659 258.094 328.323 246.934 343.701C243.994 347.751 242.594 349.545 237.624 356.237L45.622 212.866C17.622 190.866 14.122 179.88 28.122 150.366C46.6221 111.366 53.122 93.8663 67.122 66.7643C76.1394 49.3079 89.9553 20.2643 97.622 9.76429C100.789 4.59762 113.822 -3.53572 132.622 5.26428C145.312 11.2045 193.122 32.3663 217.122 42.8662C237.199 51.65 261.622 62.7643 272.622 66.7643C297.122 75.6734 336.762 84.7643 396.262 66.7643C418.896 59.9168 432.197 52.6352 441.916 47.3142C457.746 38.6478 464.076 35.1823 485.762 47.2643C492.911 51.2475 497.822 54.0115 501.061 55.8611C501.157 55.7288 500.958 55.9976 501.061 55.8611C489.061 59.3611 459.362 70.0643 437.762 83.2643C419.017 94.7192 407.743 104.246 400.929 110.005C397.927 112.542 395.791 114.347 394.262 115.264C390.262 117.664 373.928 142.264 366.262 154.264L323.762 216.764C322.928 218.598 321.362 223.464 321.762 228.264C322.162 233.064 328.595 244.598 331.762 249.764C333.262 252.598 341.362 259.764 361.762 265.764C382.162 271.764 409.595 252.931 420.762 242.764C436.595 225.598 469.662 189.764 475.262 183.764C482.262 176.264 494.762 173.264 515.262 169.764C531.662 166.964 544.762 172.264 549.262 175.264L791.762 342.264Z" fill="#2C96D2"/>
</g>
<defs>
<filter id="filter0_d_0_3" x="0.123535" y="0.237076" width="998.179" height="622.304" filterUnits="userSpaceOnUse" color-interpolation-filters="sRGB">
<feFlood flood-opacity="0" result="BackgroundImageFix"/>
<feColorMatrix in="SourceAlpha" type="matrix" values="0 0 0 0 0 0 0 0 0 0 0 0 0 0 0 0 0 0 127 0" result="hardAlpha"/>
<feOffset dy="19"/>
<feGaussianBlur stdDeviation="10"/>
<feComposite in2="hardAlpha" operator="out"/>
<feColorMatrix type="matrix" values="0 0 0 0 0 0 0 0 0 0 0 0 0 0 0 0 0 0 0.25 0"/>
<feBlend mode="normal" in2="BackgroundImageFix" result="effect1_dropShadow_0_3"/>
<feBlend mode="normal" in="SourceGraphic" in2="effect1_dropShadow_0_3" result="shape"/>
</filter>
</defs>
</svg>
